<?xml version="1.0" encoding="iso-8859-1"?>
<!-- Generator: Adobe Illustrator 26.0.1, SVG Export Plug-In . SVG Version: 6.00 Build 0)  -->
<svg version="1.1" id="Layer_1" xmlns="http://www.w3.org/2000/svg" xmlns:xlink="http://www.w3.org/1999/xlink" x="0px" y="0px"
	 viewBox="0 0 1000 1000" style="enable-background:new 0 0 1000 1000;" xml:space="preserve">
<g id="watermark_1_">
	<g>
		<g id="watermark" style="opacity:0.61;">
			<g>
				<g>
					<g>
						<g>
							<polygon style="fill:#FFFFFF;" points="421.112,924.528 409.007,952.493 402.615,952.493 390.55,924.528 397.541,924.528 
								406.051,944.503 414.68,924.528 							"/>
						</g>
						<g>
							<path style="fill:#FFFFFF;" d="M442.323,943.185h-16.26c0.599,2.677,2.876,4.315,6.153,4.315
								c2.277,0,3.915-0.679,5.393-2.077l3.316,3.595c-1.997,2.278-4.994,3.476-8.868,3.476c-7.431,0-12.265-4.674-12.265-11.067
								c0-6.432,4.914-11.066,11.466-11.066c6.312,0,11.186,4.235,11.186,11.146C442.443,941.987,442.363,942.666,442.323,943.185
								 M425.983,939.55h10.587c-0.44-2.717-2.478-4.475-5.274-4.475C428.46,935.075,426.422,936.793,425.983,939.55"/>
						</g>
						<g>
							<path style="fill:#FFFFFF;" d="M444.997,941.427c0-6.471,4.994-11.066,11.985-11.066c4.514,0,8.07,1.958,9.628,5.473
								l-4.834,2.597c-1.159-2.038-2.877-2.956-4.834-2.956c-3.156,0-5.633,2.198-5.633,5.952c0,3.756,2.477,5.953,5.633,5.953
								c1.958,0,3.675-0.879,4.834-2.956l4.834,2.637c-1.558,3.436-5.114,5.433-9.628,5.433
								C449.991,952.493,444.997,947.899,444.997,941.427"/>
						</g>
						<g>
							<path style="fill:#FFFFFF;" d="M484.386,951.135c-1.279,0.919-3.157,1.358-5.074,1.358c-5.073,0-8.03-2.597-8.03-7.711
								v-8.829h-3.316v-4.794h3.316v-5.233h6.232v5.233h5.353v4.794h-5.353v8.749c0,1.837,0.998,2.836,2.677,2.836
								c0.918,0,1.837-0.279,2.517-0.799L484.386,951.135z"/>
						</g>
					</g>
					<g>
						<path style="fill:#FFFFFF;" d="M527.157,930.68v5.753c-0.519-0.04-0.918-0.08-1.398-0.08c-3.435,0-5.713,1.877-5.713,5.993
							v10.147h-6.232V931h5.953v2.836C521.284,931.759,523.841,930.68,527.157,930.68"/>
					</g>
					<g>
						<path style="fill:#FFFFFF;" d="M528.954,949.257l2.197-4.874c2.357,1.718,5.873,2.916,9.229,2.916
							c3.836,0,5.393-1.278,5.393-2.996c0-5.233-16.26-1.638-16.26-12.025c0-4.754,3.835-8.709,11.785-8.709
							c3.516,0,7.112,0.839,9.708,2.477l-1.998,4.914c-2.597-1.478-5.273-2.197-7.75-2.197c-3.835,0-5.313,1.438-5.313,3.196
							c0,5.154,16.259,1.598,16.259,11.865c0,4.675-3.875,8.67-11.865,8.67C535.905,952.493,531.43,951.175,528.954,949.257"/>
					</g>
					<g>
						<path style="fill:#FFFFFF;" d="M577.131,943.185h-16.26c0.599,2.677,2.876,4.315,6.153,4.315c2.277,0,3.915-0.679,5.393-2.077
							l3.316,3.595c-1.998,2.278-4.994,3.476-8.869,3.476c-7.431,0-12.265-4.674-12.265-11.067c0-6.432,4.914-11.066,11.466-11.066
							c6.312,0,11.187,4.235,11.187,11.146C577.251,941.987,577.171,942.666,577.131,943.185 M560.791,939.55h10.587
							c-0.439-2.717-2.477-4.475-5.273-4.475C563.268,935.075,561.231,936.793,560.791,939.55"/>
					</g>
					<g>
						<path style="fill:#FFFFFF;" d="M602.337,943.185h-16.26c0.599,2.677,2.876,4.315,6.152,4.315c2.277,0,3.915-0.679,5.393-2.077
							l3.316,3.595c-1.998,2.278-4.994,3.476-8.869,3.476c-7.431,0-12.265-4.674-12.265-11.067c0-6.432,4.914-11.066,11.466-11.066
							c6.312,0,11.186,4.235,11.186,11.146C602.457,941.987,602.377,942.666,602.337,943.185 M585.997,939.55h10.587
							c-0.439-2.717-2.477-4.475-5.273-4.475C588.474,935.075,586.437,936.793,585.997,939.55"/>
					</g>
					<g>
						<polygon style="fill:#FFFFFF;" points="615.838,944.064 612.841,947.02 612.841,952.493 606.61,952.493 606.61,922.85 
							612.841,922.85 612.841,939.629 621.95,931 629.381,931 620.432,940.108 630.18,952.493 622.63,952.493 						"/>
					</g>
					<g>
						<path style="fill:#FFFFFF;" d="M514.371,955.416L514.371,955.416l-6.226-6.226c-0.947,1.107-2.075,2.054-3.339,2.796
							c-0.201,0.15-0.406,0.296-0.616,0.433l6.589,6.589c0.992,0.992,2.601,0.992,3.592,0
							C515.363,958.017,515.363,956.408,514.371,955.416"/>
					</g>
					<g>
						<path style="fill:#FFFFFF;" d="M499.965,929.04c0.48-0.377,1.077-0.612,1.735-0.612c0.091,0,0.181,0.005,0.27,0.013
							c-0.466-0.34-1.041-0.542-1.663-0.542c-0.859,0-1.619,0.392-2.137,0.998c-0.111,0-0.218,0.013-0.328,0.016
							c0.086-0.167,0.139-0.354,0.139-0.555c0-0.509-0.311-0.945-0.752-1.13c0.19,0.275,0.301,0.608,0.301,0.968
							c0,0.267-0.066,0.517-0.176,0.742c-6.119,0.437-10.95,5.527-10.95,11.757c0,6.516,5.283,11.799,11.799,11.799
							c6.517,0,11.8-5.283,11.8-11.799C510.004,934.777,505.644,929.892,499.965,929.04 M495.61,932.114
							c0.947,0,1.837,0.244,2.611,0.674c0.813-0.532,1.785-0.842,2.828-0.842c1.547,0,2.934,0.68,3.883,1.756
							c-0.948-0.826-2.186-1.328-3.541-1.328c-0.977,0-1.895,0.261-2.686,0.716c-0.172,0.1-0.34,0.208-0.499,0.326
							c-0.142-0.104-0.29-0.203-0.444-0.292c-0.803-0.476-1.741-0.749-2.743-0.749c-0.653,0-1.279,0.117-1.86,0.331
							C493.895,932.328,494.727,932.114,495.61,932.114 M503.858,941.785c0.25,0.664,0.394,1.38,0.394,2.131
							c0,3.34-2.707,6.047-6.047,6.047c-3.339,0-6.047-2.707-6.047-6.047c0-0.751,0.143-1.467,0.394-2.131
							c-1.35-0.831-2.253-2.317-2.253-4.019c0-2.607,2.114-4.72,4.72-4.72c1.23,0,2.346,0.474,3.186,1.244
							c0.84-0.77,1.956-1.244,3.186-1.244c2.607,0,4.72,2.113,4.72,4.72C506.111,939.467,505.208,940.954,503.858,941.785"/>
					</g>
					<g>
						<path style="fill:#FFFFFF;" d="M503.627,937.351c0,1.082-0.879,1.961-1.961,1.961c-1.082,0-1.961-0.879-1.961-1.961
							s0.879-1.961,1.961-1.961c0.22,0,0.428,0.037,0.625,0.102c-0.065,0.135-0.099,0.287-0.099,0.445
							c0,0.595,0.482,1.076,1.077,1.076c0.11,0,0.217-0.017,0.318-0.048C503.613,937.089,503.627,937.218,503.627,937.351"/>
					</g>
					<g>
						<path style="fill:#FFFFFF;" d="M496.201,937.351c0,0.818-0.665,1.482-1.483,1.482c-0.818,0-1.483-0.664-1.483-1.482
							s0.665-1.483,1.483-1.483c0.166,0,0.324,0.027,0.473,0.077c-0.049,0.102-0.075,0.217-0.075,0.337
							c0,0.449,0.364,0.814,0.814,0.814c0.083,0,0.164-0.013,0.241-0.036C496.191,937.153,496.201,937.251,496.201,937.351"/>
					</g>
					<g>
						<g>
							<g>
								<rect x="484.56" y="939.024" style="fill:#FFFFFF;" width="1.34" height="1.34"/>
							</g>
							<g>
								<rect x="510.51" y="939.024" style="fill:#FFFFFF;" width="1.34" height="1.34"/>
							</g>
							<g>
								<path style="fill:#FFFFFF;" d="M511.332,939.572h-0.304c0-7.07-5.752-12.823-12.823-12.823
									c-7.07,0-12.823,5.753-12.823,12.823h-0.305c0-3.506,1.365-6.803,3.845-9.282c2.479-2.48,5.776-3.845,9.282-3.845
									c3.507,0,6.803,1.365,9.283,3.845C509.966,932.769,511.332,936.065,511.332,939.572"/>
							</g>
						</g>
						<g>
							<rect x="497.534" y="925.927" style="fill:#FFFFFF;" width="1.34" height="1.34"/>
						</g>
						<g>
							<rect x="489.006" y="926.445" style="fill:#FFFFFF;" width="18.397" height="0.304"/>
						</g>
						<g>
							<path style="fill:#FFFFFF;" d="M489.494,926.658c0,0.235-0.191,0.427-0.427,0.427c-0.235,0-0.426-0.191-0.426-0.427
								s0.191-0.427,0.426-0.427C489.303,926.231,489.494,926.422,489.494,926.658"/>
						</g>
						<g>
							<path style="fill:#FFFFFF;" d="M507.829,926.658c0,0.235-0.191,0.427-0.427,0.427c-0.235,0-0.426-0.191-0.426-0.427
								s0.191-0.427,0.426-0.427C507.639,926.231,507.829,926.422,507.829,926.658"/>
						</g>
					</g>
				</g>
				<g>
					<path style="fill:#FFFFFF;" d="M640.109,951.171c0,3.395-5.146,3.395-5.146,0C634.963,947.779,640.109,947.779,640.109,951.171
						z"/>
				</g>
				<g>
					<g>
						<g>
							<path style="fill:#FFFFFF;" d="M307.849,936.236l3.859,13.253l4.038-13.253h4.823l-6.145,17.721h-5.073l-1.822-5.216
								l-1.572-5.896l-1.571,5.896l-1.822,5.216h-5.073l-6.18-17.721h4.858l4.038,13.253l3.822-13.253H307.849z"/>
						</g>
						<g>
							<path style="fill:#FFFFFF;" d="M340.449,936.236l3.859,13.253l4.038-13.253h4.823l-6.145,17.721h-5.073l-1.822-5.216
								l-1.571-5.896l-1.572,5.896l-1.822,5.216h-5.073l-6.18-17.721h4.858l4.038,13.253l3.822-13.253H340.449z"/>
						</g>
						<g>
							<path style="fill:#FFFFFF;" d="M373.048,936.236l3.859,13.253l4.038-13.253h4.823l-6.145,17.721h-5.073l-1.822-5.216
								l-1.572-5.896l-1.571,5.896l-1.822,5.216h-5.073l-6.18-17.721h4.858l4.038,13.253l3.822-13.253H373.048z"/>
						</g>
					</g>
					<g>
						<path style="fill:#FFFFFF;" d="M393.123,951.412c0,3.395-5.146,3.395-5.146,0C387.977,948.02,393.123,948.02,393.123,951.412z
							"/>
					</g>
					<g>
						<path style="fill:#FFFFFF;" d="M658.296,951.171c-2.036,2.001-4.177,2.787-6.787,2.787c-5.108,0-9.361-3.072-9.361-9.323
							c0-6.251,4.253-9.326,9.361-9.326c2.502,0,4.43,0.716,6.359,2.609l-2.752,2.894c-1.036-0.931-2.321-1.393-3.534-1.393
							c-2.929,0-5.073,2.144-5.073,5.216c0,3.357,2.286,5.143,5,5.143c1.393,0,2.787-0.393,3.857-1.463L658.296,951.171z"/>
					</g>
					<g>
						<path style="fill:#FFFFFF;" d="M678.097,944.777c0,5.073-3.465,9.181-9.181,9.181c-5.716,0-9.146-4.107-9.146-9.181
							c0-5.038,3.502-9.181,9.111-9.181S678.097,939.739,678.097,944.777z M664.128,944.777c0,2.679,1.609,5.181,4.788,5.181
							c3.179,0,4.788-2.502,4.788-5.181c0-2.644-1.859-5.216-4.788-5.216C665.772,939.561,664.128,942.133,664.128,944.777z"/>
					</g>
					<g>
						<path style="fill:#FFFFFF;" d="M692.828,953.958v-9.431c0-2.324-1.216-4.43-3.61-4.43c-2.356,0-3.75,2.106-3.75,4.43v9.431
							h-4.36v-17.649h4.038l0.323,2.144c0.928-1.786,2.964-2.429,4.643-2.429c2.109,0,4.218,0.858,5.216,3.287
							c1.574-2.502,3.61-3.217,5.896-3.217c5,0,7.467,3.075,7.467,8.36v9.504h-4.361v-9.504c0-2.321-0.963-4.288-3.322-4.288
							c-2.356,0-3.822,2.036-3.822,4.36v9.431H692.828z"/>
					</g>
				</g>
			</g>
		</g>
		<g style="opacity:0.61;">
			<g>
				<g>
					<path style="fill:#FFFFFF;" d="M708.973,859.493c-0.013-2.665-2.087-4.618-4.766-4.659c-2.011-0.031-1.81,0.261-1.815-1.887
						c-0.006-2.389-0.015-4.778,0.006-7.166c0.007-0.824-0.243-1.505-0.787-2.125c-5.098-5.81-10.184-11.63-15.281-17.441
						c-0.262-0.299-0.599-0.532-0.901-0.796c-13.528,0-27.055,0-40.583,0c-1.729,0.639-2.482,1.889-2.478,3.72
						c0.021,8.159,0.009,16.318,0.008,24.478c0,1.21-0.007,1.281-1.197,1.201c-3.258-0.221-5.477,2.147-5.436,5.426
						c0.096,7.568,0.028,15.137,0.031,22.706c0.001,3.44,1.887,5.32,5.333,5.331c1.267,0.004,1.268,0.004,1.268,1.306
						c0.001,4.831-0.002,9.662,0.002,14.493c0.002,2.595,1.262,3.855,3.85,3.855c17.446,0.001,34.891,0.001,52.337,0
						c2.543,0,3.822-1.268,3.824-3.799c0.005-4.912,0.001-9.823,0.003-14.735c0-1.115,0.005-1.112,1.131-1.121
						c0.589-0.005,1.177,0.017,1.761-0.127c2.169-0.535,3.68-2.273,3.689-4.503C709.007,875.597,709.011,867.545,708.973,859.493z
						 M647.034,828.716c11.619-0.001,23.237-0.001,34.856,0c1.193,0,1.206,0.015,1.207,1.222c0.001,4.884-0.002,9.767,0.002,14.651
						c0.001,1.765,0.543,2.305,2.307,2.306c4.159,0.003,8.318,0,12.477,0.003c0.997,0.001,1.044,0.046,1.046,1.052
						c0.006,1.932,0.005,3.864,0,5.796c-0.003,1.038-0.051,1.085-1.098,1.085c-8.479,0.002-16.958,0.001-25.438,0.001
						c-8.452,0-16.905,0-25.357,0c-1.198,0-1.202-0.003-1.202-1.221c-0.001-7.889-0.001-15.778,0-23.667
						C645.835,828.724,645.844,828.716,647.034,828.716z M697.728,903.645c-8.454,0.001-16.908,0.001-25.362,0.001
						c-8.427,0-16.854,0.001-25.281,0c-1.245,0-1.249-0.003-1.249-1.262c-0.001-4.348-0.003-8.696,0.001-13.043
						c0.001-1.01,0.051-1.059,1.041-1.059c16.989-0.002,33.977-0.002,50.966,0c1.041,0,1.086,0.044,1.087,1.094
						c0.003,4.348,0.003,8.696,0.001,13.043C698.931,903.634,698.92,903.645,697.728,903.645z"/>
				</g>
				<g>
					<g>
						<rect x="668.546" y="828.478" style="fill:#FFFFFF;" width="3.825" height="2.295"/>
					</g>
					<g>
						<rect x="664.722" y="830.773" style="fill:#FFFFFF;" width="3.825" height="2.295"/>
					</g>
					<g>
						<rect x="668.546" y="833.068" style="fill:#FFFFFF;" width="3.825" height="2.295"/>
					</g>
					<g>
						<rect x="664.722" y="835.363" style="fill:#FFFFFF;" width="3.825" height="2.295"/>
					</g>
					<g>
						<rect x="668.546" y="837.658" style="fill:#FFFFFF;" width="3.825" height="2.295"/>
					</g>
					<g>
						<rect x="664.722" y="839.953" style="fill:#FFFFFF;" width="3.825" height="2.295"/>
					</g>
					<g>
						<rect x="668.546" y="842.247" style="fill:#FFFFFF;" width="3.825" height="2.295"/>
					</g>
					<g>
						<rect x="664.722" y="844.542" style="fill:#FFFFFF;" width="3.825" height="2.295"/>
					</g>
					<g>
						<rect x="668.546" y="846.837" style="fill:#FFFFFF;" width="3.825" height="2.295"/>
					</g>
					<g>
						<rect x="664.722" y="849.132" style="fill:#FFFFFF;" width="3.825" height="2.295"/>
					</g>
					<g>
						<rect x="668.546" y="851.427" style="fill:#FFFFFF;" width="3.825" height="2.295"/>
					</g>
					<g>
						<rect x="664.722" y="853.722" style="fill:#FFFFFF;" width="3.825" height="2.295"/>
					</g>
				</g>
			</g>
			<g>
				<path style="fill:#FFFFFF;" d="M364.231,859.493c-0.013-2.665-2.087-4.618-4.766-4.659c-2.011-0.031-1.81,0.261-1.815-1.887
					c-0.006-2.389-0.015-4.778,0.006-7.166c0.007-0.824-0.243-1.505-0.787-2.125c-5.098-5.81-10.184-11.63-15.281-17.441
					c-0.262-0.299-0.599-0.532-0.901-0.796c-13.528,0-27.055,0-40.583,0c-1.729,0.639-2.482,1.889-2.478,3.72
					c0.021,8.159,0.009,16.318,0.008,24.478c0,1.21-0.007,1.281-1.197,1.201c-3.258-0.221-5.477,2.147-5.436,5.426
					c0.096,7.568,0.028,15.137,0.031,22.706c0.001,3.44,1.887,5.32,5.333,5.331c1.267,0.004,1.268,0.004,1.268,1.306
					c0.001,4.831-0.002,9.662,0.002,14.493c0.002,2.595,1.262,3.855,3.85,3.855c17.446,0.001,34.891,0.001,52.337,0
					c2.543,0,3.822-1.268,3.824-3.799c0.005-4.912,0.001-9.823,0.003-14.735c0-1.115,0.004-1.112,1.131-1.121
					c0.589-0.005,1.177,0.017,1.761-0.127c2.169-0.535,3.68-2.273,3.689-4.503C364.264,875.597,364.269,867.545,364.231,859.493z
					 M302.292,828.716c11.619-0.001,23.237-0.001,34.856,0c1.192,0,1.206,0.015,1.207,1.222c0.001,4.884-0.001,9.767,0.002,14.651
					c0.001,1.765,0.543,2.305,2.307,2.306c4.159,0.003,8.318,0,12.477,0.003c0.997,0.001,1.044,0.046,1.046,1.052
					c0.006,1.932,0.005,3.864,0,5.796c-0.003,1.038-0.051,1.085-1.098,1.085c-8.479,0.002-16.958,0.001-25.438,0.001
					c-8.452,0-16.905,0-25.357,0c-1.198,0-1.202-0.003-1.202-1.221c-0.001-7.889-0.001-15.778,0-23.667
					C301.093,828.724,301.102,828.716,302.292,828.716z M352.985,903.645c-8.454,0.001-16.908,0.001-25.362,0.001
					c-8.427,0-16.854,0.001-25.281,0c-1.245,0-1.249-0.003-1.249-1.262c-0.001-4.348-0.003-8.696,0.001-13.043
					c0.001-1.01,0.051-1.059,1.041-1.059c16.989-0.002,33.977-0.002,50.966,0c1.041,0,1.086,0.044,1.087,1.094
					c0.003,4.348,0.003,8.696,0.001,13.043C354.188,903.634,354.177,903.645,352.985,903.645z"/>
			</g>
			<g>
				<path style="fill:#FFFFFF;" d="M303.581,879.891v-17.193h6.051c0.816,0,1.581,0.132,2.293,0.396
					c0.712,0.264,1.333,0.636,1.861,1.117c0.527,0.48,0.944,1.053,1.248,1.717c0.304,0.665,0.456,1.397,0.456,2.198
					c0,0.816-0.152,1.557-0.456,2.221s-0.721,1.236-1.248,1.717c-0.529,0.48-1.149,0.852-1.861,1.117
					c-0.713,0.264-1.477,0.396-2.293,0.396h-2.809v6.315H303.581z M309.68,870.503c0.848,0,1.489-0.241,1.921-0.721
					c0.432-0.48,0.648-1.032,0.648-1.656c0-0.304-0.052-0.601-0.156-0.889c-0.105-0.288-0.264-0.54-0.48-0.756
					c-0.216-0.217-0.484-0.388-0.805-0.516c-0.32-0.129-0.696-0.193-1.128-0.193h-2.857v4.731H309.68z"/>
				<path style="fill:#FFFFFF;" d="M317.796,862.699h3.77l6.916,11.526h0.191l-0.191-3.314v-8.212h3.217v17.193h-3.409l-7.3-12.174
					h-0.191l0.191,3.314v8.86h-3.193V862.699z"/>
				<path style="fill:#FFFFFF;" d="M343.08,870.454h8.429c0.048,0.193,0.087,0.425,0.12,0.697c0.031,0.272,0.048,0.544,0.048,0.816
					c0,1.104-0.167,2.145-0.504,3.121c-0.336,0.977-0.865,1.849-1.585,2.618c-0.768,0.817-1.69,1.449-2.761,1.897
					c-1.073,0.448-2.298,0.672-3.674,0.672c-1.249,0-2.426-0.224-3.53-0.672c-1.104-0.447-2.065-1.072-2.881-1.873
					c-0.816-0.8-1.465-1.749-1.945-2.845c-0.48-1.097-0.72-2.293-0.72-3.59c0-1.296,0.24-2.493,0.72-3.589s1.129-2.045,1.945-2.845
					c0.816-0.8,1.777-1.425,2.881-1.873c1.104-0.448,2.281-0.672,3.53-0.672c1.392,0,2.637,0.24,3.734,0.72
					c1.097,0.48,2.036,1.144,2.821,1.993l-2.232,2.185c-0.562-0.592-1.185-1.044-1.874-1.357s-1.513-0.468-2.473-0.468
					c-0.786,0-1.53,0.14-2.234,0.421c-0.705,0.28-1.321,0.676-1.85,1.188c-0.527,0.512-0.949,1.133-1.259,1.861
					c-0.312,0.728-0.469,1.541-0.469,2.437c0,0.897,0.157,1.709,0.469,2.438c0.311,0.728,0.735,1.349,1.271,1.861
					c0.536,0.512,1.156,0.909,1.862,1.188c0.704,0.281,1.457,0.421,2.258,0.421c0.911,0,1.684-0.132,2.317-0.396
					c0.632-0.264,1.171-0.604,1.62-1.021c0.321-0.288,0.598-0.652,0.829-1.092s0.412-0.932,0.541-1.477h-5.404V870.454z"/>
			</g>
			<g>
				<path style="fill:#FFFFFF;" d="M443.437,859.493c-0.013-2.665-2.087-4.618-4.766-4.659c-2.011-0.031-1.81,0.261-1.815-1.887
					c-0.006-2.389-0.015-4.778,0.006-7.166c0.007-0.824-0.243-1.505-0.787-2.125c-5.098-5.81-10.184-11.63-15.281-17.441
					c-0.262-0.299-0.599-0.532-0.901-0.796c-13.528,0-27.055,0-40.583,0c-1.729,0.639-2.482,1.889-2.478,3.72
					c0.021,8.159,0.009,16.318,0.008,24.478c0,1.21-0.007,1.281-1.197,1.201c-3.258-0.221-5.477,2.147-5.436,5.426
					c0.096,7.568,0.028,15.137,0.031,22.706c0.001,3.44,1.887,5.32,5.333,5.331c1.267,0.004,1.268,0.004,1.268,1.306
					c0.001,4.831-0.002,9.662,0.002,14.493c0.002,2.595,1.262,3.855,3.85,3.855c17.446,0.001,34.891,0.001,52.337,0
					c2.543,0,3.822-1.268,3.824-3.799c0.005-4.912,0.001-9.823,0.003-14.735c0-1.115,0.004-1.112,1.131-1.121
					c0.589-0.005,1.177,0.017,1.761-0.127c2.169-0.535,3.68-2.273,3.689-4.503C443.47,875.597,443.475,867.545,443.437,859.493z
					 M381.498,828.716c11.619-0.001,23.237-0.001,34.856,0c1.192,0,1.206,0.015,1.207,1.222c0.001,4.884-0.001,9.767,0.002,14.651
					c0.001,1.765,0.543,2.305,2.307,2.306c4.159,0.003,8.318,0,12.477,0.003c0.997,0.001,1.044,0.046,1.046,1.052
					c0.006,1.932,0.005,3.864,0,5.796c-0.003,1.038-0.051,1.085-1.098,1.085c-8.479,0.002-16.958,0.001-25.438,0.001
					c-8.452,0-16.905,0-25.357,0c-1.198,0-1.202-0.003-1.202-1.221c-0.001-7.889-0.001-15.778,0-23.667
					C380.299,828.724,380.308,828.716,381.498,828.716z M432.192,903.645c-8.454,0.001-16.908,0.001-25.362,0.001
					c-8.427,0-16.854,0.001-25.281,0c-1.245,0-1.249-0.003-1.249-1.262c-0.001-4.348-0.002-8.696,0.001-13.043
					c0.001-1.01,0.051-1.059,1.041-1.059c16.989-0.002,33.977-0.002,50.966,0c1.041,0,1.086,0.044,1.087,1.094
					c0.003,4.348,0.003,8.696,0.001,13.043C433.394,903.634,433.384,903.645,432.192,903.645z"/>
			</g>
			<g>
				<path style="fill:#FFFFFF;" d="M402.272,862.699h3.698l6.46,17.193h-3.578l-1.416-4.106h-6.628l-1.417,4.106h-3.578
					L402.272,862.699z M406.379,872.808l-1.537-4.298l-0.625-2.089h-0.192l-0.625,2.089l-1.537,4.298H406.379z"/>
				<path style="fill:#FFFFFF;" d="M415.815,866.541c-0.273,0-0.533-0.052-0.781-0.156c-0.248-0.104-0.465-0.248-0.648-0.432
					c-0.184-0.184-0.328-0.396-0.432-0.636c-0.105-0.241-0.156-0.504-0.156-0.793s0.052-0.552,0.156-0.793
					c0.104-0.24,0.248-0.452,0.432-0.636c0.184-0.184,0.4-0.328,0.648-0.432c0.248-0.104,0.508-0.156,0.781-0.156
					c0.56,0,1.041,0.196,1.441,0.588c0.4,0.393,0.601,0.869,0.601,1.429c0,0.56-0.201,1.037-0.601,1.428
					C416.856,866.345,416.375,866.541,415.815,866.541z M414.255,879.891v-11.766h3.145v11.766H414.255z"/>
			</g>
			<g>
				<path style="fill:#FFFFFF;" d="M524.043,859.493c-0.013-2.665-2.087-4.618-4.766-4.659c-2.011-0.031-1.81,0.261-1.815-1.887
					c-0.006-2.389-0.015-4.778,0.006-7.166c0.007-0.824-0.243-1.505-0.787-2.125c-5.098-5.81-10.184-11.63-15.281-17.441
					c-0.262-0.299-0.599-0.532-0.901-0.796c-13.528,0-27.055,0-40.583,0c-1.729,0.639-2.482,1.889-2.478,3.72
					c0.021,8.159,0.009,16.318,0.008,24.478c0,1.21-0.007,1.281-1.197,1.201c-3.258-0.221-5.477,2.147-5.436,5.426
					c0.096,7.568,0.028,15.137,0.031,22.706c0.001,3.44,1.887,5.32,5.333,5.331c1.267,0.004,1.268,0.004,1.268,1.306
					c0.001,4.831-0.002,9.662,0.002,14.493c0.002,2.595,1.262,3.855,3.85,3.855c17.446,0.001,34.891,0.001,52.337,0
					c2.543,0,3.822-1.268,3.824-3.799c0.005-4.912,0.001-9.823,0.003-14.735c0-1.115,0.004-1.112,1.131-1.121
					c0.589-0.005,1.177,0.017,1.761-0.127c2.169-0.535,3.68-2.273,3.689-4.503C524.076,875.597,524.081,867.545,524.043,859.493z
					 M462.104,828.716c11.619-0.001,23.237-0.001,34.856,0c1.192,0,1.206,0.015,1.207,1.222c0.001,4.884-0.001,9.767,0.002,14.651
					c0.001,1.765,0.543,2.305,2.307,2.306c4.159,0.003,8.318,0,12.477,0.003c0.997,0.001,1.044,0.046,1.046,1.052
					c0.006,1.932,0.005,3.864,0,5.796c-0.003,1.038-0.051,1.085-1.098,1.085c-8.479,0.002-16.958,0.001-25.438,0.001
					c-8.452,0-16.905,0-25.357,0c-1.198,0-1.202-0.003-1.202-1.221c-0.001-7.889-0.001-15.778,0-23.667
					C460.905,828.724,460.914,828.716,462.104,828.716z M512.798,903.645c-8.454,0.001-16.908,0.001-25.362,0.001
					c-8.427,0-16.854,0.001-25.281,0c-1.245,0-1.249-0.003-1.249-1.262c-0.001-4.348-0.002-8.696,0.001-13.043
					c0.001-1.01,0.051-1.059,1.041-1.059c16.989-0.002,33.977-0.002,50.966,0c1.041,0,1.086,0.044,1.087,1.094
					c0.003,4.348,0.003,8.696,0.001,13.043C514,903.634,513.989,903.645,512.798,903.645z"/>
			</g>
			<g>
				<path style="fill:#FFFFFF;" d="M470.308,880.275c-0.737,0-1.441-0.104-2.113-0.312c-0.672-0.208-1.289-0.52-1.849-0.936
					c-0.56-0.416-1.048-0.925-1.464-1.525c-0.417-0.601-0.745-1.301-0.985-2.101l3.049-1.2c0.224,0.864,0.616,1.581,1.177,2.149
					s1.297,0.852,2.209,0.852c0.336,0,0.66-0.044,0.973-0.132c0.312-0.087,0.592-0.216,0.84-0.384
					c0.248-0.168,0.444-0.38,0.589-0.636c0.144-0.256,0.216-0.552,0.216-0.888c0-0.32-0.056-0.608-0.168-0.865
					c-0.112-0.255-0.3-0.495-0.564-0.72c-0.264-0.224-0.609-0.44-1.033-0.648c-0.424-0.208-0.948-0.424-1.572-0.648l-1.056-0.384
					c-0.465-0.16-0.933-0.376-1.405-0.648c-0.472-0.272-0.9-0.6-1.284-0.985c-0.385-0.384-0.701-0.836-0.949-1.357
					c-0.249-0.52-0.372-1.108-0.372-1.765c0-0.672,0.132-1.301,0.396-1.885c0.264-0.584,0.64-1.096,1.129-1.537
					c0.488-0.44,1.072-0.784,1.753-1.032c0.681-0.248,1.437-0.372,2.269-0.372c0.864,0,1.612,0.116,2.245,0.348
					c0.633,0.232,1.168,0.528,1.609,0.888c0.44,0.36,0.796,0.757,1.068,1.188c0.272,0.433,0.472,0.84,0.601,1.225l-2.857,1.2
					c-0.161-0.48-0.453-0.913-0.876-1.297c-0.425-0.384-1.005-0.576-1.741-0.576c-0.704,0-1.289,0.164-1.753,0.492
					c-0.465,0.329-0.697,0.757-0.697,1.285c0,0.512,0.224,0.949,0.672,1.309c0.448,0.36,1.161,0.708,2.137,1.044l1.081,0.36
					c0.688,0.241,1.316,0.517,1.885,0.828c0.568,0.312,1.056,0.684,1.465,1.117c0.408,0.433,0.72,0.925,0.936,1.477
					c0.217,0.552,0.324,1.189,0.324,1.909c0,0.897-0.18,1.669-0.54,2.317c-0.36,0.648-0.82,1.181-1.38,1.597
					c-0.561,0.416-1.193,0.728-1.897,0.936C471.668,880.172,470.98,880.275,470.308,880.275z"/>
				<path style="fill:#FFFFFF;" d="M477.175,862.699h3.506l3.554,10.349l0.625,2.209h0.192l0.672-2.209l3.698-10.349h3.506
					l-6.268,17.193h-3.409L477.175,862.699z"/>
				<path style="fill:#FFFFFF;" d="M502.388,870.454h8.428c0.048,0.193,0.088,0.425,0.12,0.697c0.033,0.272,0.049,0.544,0.049,0.816
					c0,1.104-0.169,2.145-0.505,3.121c-0.336,0.977-0.864,1.849-1.585,2.618c-0.768,0.817-1.688,1.449-2.761,1.897
					c-1.073,0.448-2.298,0.672-3.674,0.672c-1.249,0-2.425-0.224-3.529-0.672c-1.105-0.447-2.066-1.072-2.882-1.873
					c-0.816-0.8-1.465-1.749-1.945-2.845c-0.48-1.097-0.72-2.293-0.72-3.59c0-1.296,0.241-2.493,0.72-3.589
					c0.48-1.097,1.129-2.045,1.945-2.845c0.816-0.8,1.777-1.425,2.882-1.873c1.104-0.448,2.28-0.672,3.529-0.672
					c1.392,0,2.637,0.24,3.734,0.72c1.097,0.48,2.038,1.144,2.822,1.993l-2.234,2.185c-0.56-0.592-1.185-1.044-1.874-1.357
					c-0.687-0.312-1.512-0.468-2.473-0.468c-0.784,0-1.528,0.14-2.234,0.421c-0.704,0.28-1.321,0.676-1.848,1.188
					c-0.528,0.512-0.949,1.133-1.261,1.861c-0.312,0.728-0.468,1.541-0.468,2.437c0,0.897,0.156,1.709,0.468,2.438
					c0.312,0.728,0.737,1.349,1.273,1.861c0.536,0.512,1.156,0.909,1.86,1.188c0.705,0.281,1.457,0.421,2.258,0.421
					c0.913,0,1.685-0.132,2.317-0.396c0.632-0.264,1.173-0.604,1.621-1.021c0.32-0.288,0.596-0.652,0.828-1.092
					c0.233-0.44,0.412-0.932,0.541-1.477h-5.402V870.454z"/>
			</g>
			<g>
				<path style="fill:#FFFFFF;" d="M602.976,859.493c-0.013-2.665-2.087-4.618-4.766-4.659c-2.011-0.031-1.81,0.261-1.815-1.887
					c-0.006-2.389-0.015-4.778,0.006-7.166c0.007-0.824-0.243-1.505-0.787-2.125c-5.098-5.81-10.184-11.63-15.281-17.441
					c-0.262-0.299-0.599-0.532-0.901-0.796c-13.528,0-27.055,0-40.583,0c-1.729,0.639-2.482,1.889-2.478,3.72
					c0.021,8.159,0.009,16.318,0.008,24.478c0,1.21-0.007,1.281-1.197,1.201c-3.258-0.221-5.477,2.147-5.436,5.426
					c0.096,7.568,0.028,15.137,0.031,22.706c0.001,3.44,1.887,5.32,5.333,5.331c1.267,0.004,1.268,0.004,1.268,1.306
					c0.001,4.831-0.002,9.662,0.002,14.493c0.002,2.595,1.262,3.855,3.85,3.855c17.446,0.001,34.891,0.001,52.337,0
					c2.543,0,3.822-1.268,3.824-3.799c0.005-4.912,0.001-9.823,0.003-14.735c0-1.115,0.005-1.112,1.131-1.121
					c0.589-0.005,1.178,0.017,1.761-0.127c2.169-0.535,3.68-2.273,3.689-4.503C603.01,875.597,603.015,867.545,602.976,859.493z
					 M541.037,828.716c11.619-0.001,23.237-0.001,34.856,0c1.193,0,1.206,0.015,1.207,1.222c0.001,4.884-0.002,9.767,0.002,14.651
					c0.001,1.765,0.543,2.305,2.307,2.306c4.159,0.003,8.318,0,12.477,0.003c0.997,0.001,1.044,0.046,1.046,1.052
					c0.006,1.932,0.005,3.864,0,5.796c-0.003,1.038-0.051,1.085-1.098,1.085c-8.479,0.002-16.958,0.001-25.438,0.001
					c-8.452,0-16.905,0-25.357,0c-1.198,0-1.202-0.003-1.202-1.221c-0.001-7.889-0.001-15.778,0-23.667
					C539.838,828.724,539.847,828.716,541.037,828.716z M591.731,903.645c-8.454,0.001-16.908,0.001-25.362,0.001
					c-8.427,0-16.854,0.001-25.281,0c-1.245,0-1.249-0.003-1.249-1.262c-0.001-4.348-0.003-8.696,0.001-13.043
					c0.001-1.01,0.051-1.059,1.041-1.059c16.989-0.002,33.977-0.002,50.966,0c1.041,0,1.086,0.044,1.087,1.094
					c0.003,4.348,0.003,8.696,0.001,13.043C592.934,903.634,592.923,903.645,591.731,903.645z"/>
			</g>
			<g>
				<path style="fill:#FFFFFF;" d="M549.998,865.772v3.986h6.891v3.074h-6.891v3.986h7.659v3.073h-10.901v-17.193h10.901v3.073
					H549.998z"/>
				<path style="fill:#FFFFFF;" d="M560.635,879.891v-17.193h6.051c0.816,0,1.581,0.132,2.293,0.396
					c0.712,0.264,1.333,0.636,1.861,1.117c0.528,0.48,0.944,1.053,1.249,1.717c0.304,0.665,0.456,1.397,0.456,2.198
					c0,0.816-0.152,1.557-0.456,2.221c-0.305,0.664-0.721,1.236-1.249,1.717c-0.528,0.48-1.149,0.852-1.861,1.117
					c-0.713,0.264-1.477,0.396-2.293,0.396h-2.809v6.315H560.635z M566.735,870.503c0.848,0,1.489-0.241,1.921-0.721
					c0.432-0.48,0.648-1.032,0.648-1.656c0-0.304-0.052-0.601-0.156-0.889c-0.105-0.288-0.264-0.54-0.48-0.756
					c-0.216-0.217-0.484-0.388-0.805-0.516c-0.32-0.129-0.696-0.193-1.128-0.193h-2.857v4.731H566.735z"/>
				<path style="fill:#FFFFFF;" d="M580.109,880.275c-0.737,0-1.441-0.104-2.113-0.312c-0.672-0.208-1.289-0.52-1.849-0.936
					c-0.56-0.416-1.049-0.925-1.465-1.525c-0.416-0.601-0.744-1.301-0.985-2.101l3.049-1.2c0.224,0.864,0.616,1.581,1.177,2.149
					c0.56,0.568,1.296,0.852,2.209,0.852c0.336,0,0.66-0.044,0.973-0.132c0.312-0.087,0.592-0.216,0.84-0.384
					c0.248-0.168,0.444-0.38,0.588-0.636c0.144-0.256,0.217-0.552,0.217-0.888c0-0.32-0.057-0.608-0.168-0.865
					c-0.112-0.255-0.3-0.495-0.565-0.72c-0.264-0.224-0.608-0.44-1.032-0.648c-0.424-0.208-0.949-0.424-1.573-0.648l-1.056-0.384
					c-0.465-0.16-0.932-0.376-1.404-0.648c-0.473-0.272-0.901-0.6-1.285-0.985c-0.384-0.384-0.701-0.836-0.949-1.357
					c-0.248-0.52-0.372-1.108-0.372-1.765c0-0.672,0.132-1.301,0.396-1.885c0.264-0.584,0.64-1.096,1.129-1.537
					c0.489-0.44,1.073-0.784,1.753-1.032c0.68-0.248,1.437-0.372,2.269-0.372c0.865,0,1.613,0.116,2.246,0.348
					c0.632,0.232,1.168,0.528,1.609,0.888c0.44,0.36,0.796,0.757,1.068,1.188c0.272,0.433,0.472,0.84,0.601,1.225l-2.857,1.2
					c-0.161-0.48-0.453-0.913-0.877-1.297s-1.005-0.576-1.741-0.576c-0.705,0-1.289,0.164-1.753,0.492
					c-0.465,0.329-0.696,0.757-0.696,1.285c0,0.512,0.224,0.949,0.672,1.309c0.448,0.36,1.16,0.708,2.137,1.044l1.08,0.36
					c0.689,0.241,1.317,0.517,1.885,0.828c0.568,0.312,1.056,0.684,1.465,1.117c0.408,0.433,0.72,0.925,0.936,1.477
					c0.216,0.552,0.324,1.189,0.324,1.909c0,0.897-0.18,1.669-0.54,2.317c-0.36,0.648-0.821,1.181-1.38,1.597
					c-0.561,0.416-1.193,0.728-1.897,0.936C581.47,880.172,580.782,880.275,580.109,880.275z"/>
			</g>
			<g>
				<path style="fill:#FFFFFF;" d="M655.431,876.625l8.716-10.854h-8.332v-3.073h12.103v3.266l-8.621,10.854h8.716v3.073h-12.582
					V876.625z"/>
				<path style="fill:#FFFFFF;" d="M670.702,862.699h3.242v17.193h-3.242V862.699z"/>
				<path style="fill:#FFFFFF;" d="M677.402,879.891v-17.193h6.051c0.817,0,1.581,0.132,2.293,0.396
					c0.712,0.264,1.333,0.636,1.861,1.117s0.944,1.053,1.249,1.717c0.304,0.665,0.456,1.397,0.456,2.198
					c0,0.816-0.152,1.557-0.456,2.221c-0.305,0.664-0.721,1.236-1.249,1.717s-1.149,0.852-1.861,1.117
					c-0.713,0.264-1.477,0.396-2.293,0.396h-2.809v6.315H677.402z M683.501,870.503c0.848,0,1.489-0.241,1.921-0.721
					c0.433-0.48,0.648-1.032,0.648-1.656c0-0.304-0.052-0.601-0.156-0.889c-0.105-0.288-0.264-0.54-0.48-0.756
					c-0.216-0.217-0.484-0.388-0.805-0.516c-0.32-0.129-0.696-0.193-1.128-0.193h-2.857v4.731H683.501z"/>
			</g>
		</g>
		<g style="opacity:0.61;">
			<path style="fill:#FFFFFF;" d="M609.144,863.785h19.739v4.881h-19.739V863.785z M609.144,872.201h19.739v4.884h-19.739V872.201z"
				/>
		</g>
	</g>
	<g style="opacity:0.61;">
		<path style="fill:#FFFFFF;" d="M297,963.076h3.498c2.75,0,4.603,1.768,4.603,4.297s-1.854,4.296-4.603,4.296H297V963.076z
			 M300.449,970.883c2.283,0,3.756-1.448,3.756-3.51s-1.473-3.511-3.756-3.511h-2.541v7.021H300.449z"/>
		<path style="fill:#FFFFFF;" d="M315.251,967.373c0-2.504,1.915-4.37,4.517-4.37c2.577,0,4.505,1.853,4.505,4.37
			c0,2.516-1.927,4.369-4.505,4.369C317.166,971.742,315.251,969.877,315.251,967.373z M323.365,967.373
			c0-2.05-1.534-3.56-3.596-3.56c-2.075,0-3.621,1.51-3.621,3.56c0,2.049,1.546,3.559,3.621,3.559
			C321.831,970.932,323.365,969.422,323.365,967.373z"/>
		<path style="fill:#FFFFFF;" d="M346.724,963.076l-2.897,8.593h-0.957l-2.516-7.328l-2.529,7.328h-0.945l-2.897-8.593h0.933
			l2.479,7.389l2.566-7.389h0.847l2.529,7.426l2.516-7.426H346.724z"/>
		<path style="fill:#FFFFFF;" d="M364.435,963.076v8.593h-0.749l-5.524-6.972v6.972h-0.908v-8.593h0.749l5.536,6.973v-6.973H364.435
			z"/>
		<path style="fill:#FFFFFF;" d="M376.108,963.076h0.908v7.807h4.812v0.786h-5.72V963.076z"/>
		<path style="fill:#FFFFFF;" d="M391.279,967.373c0-2.504,1.915-4.37,4.517-4.37c2.577,0,4.505,1.853,4.505,4.37
			c0,2.516-1.927,4.369-4.505,4.369C393.194,971.742,391.279,969.877,391.279,967.373z M399.392,967.373
			c0-2.05-1.534-3.56-3.596-3.56c-2.075,0-3.621,1.51-3.621,3.56c0,2.049,1.546,3.559,3.621,3.559
			C397.858,970.932,399.392,969.422,399.392,967.373z"/>
		<path style="fill:#FFFFFF;" d="M416.478,969.374h-4.787l-1.031,2.295h-0.945l3.928-8.593h0.896l3.928,8.593h-0.957
			L416.478,969.374z M416.147,968.637l-2.062-4.615l-2.062,4.615H416.147z"/>
		<path style="fill:#FFFFFF;" d="M428.765,963.076h3.498c2.75,0,4.603,1.768,4.603,4.297s-1.854,4.296-4.603,4.296h-3.498V963.076z
			 M432.214,970.883c2.283,0,3.756-1.448,3.756-3.51s-1.473-3.511-3.756-3.511h-2.541v7.021H432.214z"/>
		<path style="fill:#FFFFFF;" d="M465.256,969.374h-4.787l-1.031,2.295h-0.945l3.928-8.593h0.896l3.928,8.593h-0.957
			L465.256,969.374z M464.925,968.637l-2.062-4.615l-2.062,4.615H464.925z"/>
		<path style="fill:#FFFFFF;" d="M477.543,963.076h0.908v7.807h4.812v0.786h-5.72V963.076z"/>
		<path style="fill:#FFFFFF;" d="M493.647,963.076h0.908v7.807h4.812v0.786h-5.72V963.076z"/>
		<path style="fill:#FFFFFF;" d="M522.749,963.862v3.376h4.443v0.786h-4.443v3.646h-0.909v-8.593h5.891v0.786H522.749z"/>
		<path style="fill:#FFFFFF;" d="M538.485,963.076h0.909v8.593h-0.909V963.076z"/>
		<path style="fill:#FFFFFF;" d="M551.067,963.076h0.909v7.807h4.811v0.786h-5.72V963.076z"/>
		<path style="fill:#FFFFFF;" d="M573.246,970.883v0.786h-6.076v-8.593h5.891v0.786h-4.983v3.056h4.443v0.774h-4.443v3.191H573.246z
			"/>
		<path style="fill:#FFFFFF;" d="M597.255,963.862v3.376h4.443v0.786h-4.443v3.646h-0.909v-8.593h5.891v0.786H597.255z"/>
		<path style="fill:#FFFFFF;" d="M612.119,967.373c0-2.504,1.915-4.37,4.517-4.37c2.577,0,4.505,1.853,4.505,4.37
			c0,2.516-1.927,4.369-4.505,4.369C614.034,971.742,612.119,969.877,612.119,967.373z M620.232,967.373
			c0-2.05-1.534-3.56-3.596-3.56c-2.075,0-3.622,1.51-3.622,3.56c0,2.049,1.547,3.559,3.622,3.559
			C618.698,970.932,620.232,969.422,620.232,967.373z"/>
		<path style="fill:#FFFFFF;" d="M637.919,971.669l-1.963-2.762c-0.222,0.024-0.442,0.037-0.688,0.037h-2.307v2.725h-0.909v-8.593
			h3.216c2.185,0,3.511,1.105,3.511,2.946c0,1.351-0.712,2.295-1.964,2.7l2.099,2.946H637.919z M637.871,966.022
			c0-1.375-0.909-2.161-2.627-2.161h-2.283v4.309h2.283C636.962,968.17,637.871,967.373,637.871,966.022z"/>
		<path style="fill:#FFFFFF;" d="M658.724,963.076v8.593h-0.871v-6.874l-3.376,5.782h-0.429l-3.376-5.745v6.837h-0.872v-8.593h0.749
			l3.732,6.371l3.695-6.371H658.724z"/>
		<path style="fill:#FFFFFF;" d="M675.787,969.374h-4.788l-1.031,2.295h-0.946l3.928-8.593h0.896l3.928,8.593h-0.957
			L675.787,969.374z M675.455,968.637l-2.062-4.615l-2.062,4.615H675.455z"/>
		<path style="fill:#FFFFFF;" d="M689.312,963.862h-3.02v-0.786h6.948v0.786h-3.02v7.807h-0.908V963.862z"/>
		<path style="fill:#FFFFFF;" d="M702.605,970.626l0.356-0.7c0.614,0.601,1.706,1.043,2.835,1.043c1.608,0,2.308-0.675,2.308-1.522
			c0-2.357-5.29-0.908-5.29-4.087c0-1.265,0.982-2.357,3.167-2.357c0.97,0,1.976,0.282,2.664,0.761l-0.307,0.724
			c-0.737-0.479-1.596-0.712-2.357-0.712c-1.571,0-2.271,0.7-2.271,1.559c0,2.357,5.29,0.933,5.29,4.063
			c0,1.265-1.006,2.344-3.204,2.344C704.508,971.742,703.243,971.288,702.605,970.626z"/>
	</g>
</g>
<g>
</g>
<path d="M325.8,585.131c-21.663,0-30.505-16.092-30.505-29.532c0-11.76,9.108-29.356,30.947-29.356
	c17.509,0,30.86,10.434,30.86,28.206C357.101,571.337,344.632,585.131,325.8,585.131z M328.01,582.125
	c5.923,0,20.778-3.006,20.778-25.465c0-17.772-10.964-27.675-23.078-27.675c-12.29,0-22.193,7.604-22.193,24.315
	C303.517,570.63,313.155,582.125,328.01,582.125L328.01,582.125z M372.088,562.318v-13.262c0-12.203,0-13.794-0.176-16.181
	c-0.178-2.3-0.885-3.715-3.36-4.245c-0.619-0.089-2.035-0.176-2.741-0.176c-0.178,0-0.53-0.178-0.53-0.443
	c0-0.53,0.441-0.706,1.237-0.706c3.802,0,8.666,0.265,9.197,0.265c1.856,0,6.365-0.265,9.99-0.265
	c9.727,0,13.264,3.182,14.501,4.243c1.68,1.504,3.891,4.952,3.891,9.903c0,9.816-8.134,16.976-19.187,16.976
	c-0.354,0-1.237,0-1.68-0.087c-0.352,0-0.796-0.178-0.796-0.53c0-0.709,0.53-0.709,2.211-0.709c6.986,0,12.82-4.773,12.82-12.555
	c0-1.15,0.267-6.454-3.802-10.699c-4.332-4.597-9.373-4.156-10.964-4.156c-1.15,0-2.476,0.176-3.006,0.443
	c-0.441,0.176-0.53,0.796-0.53,1.413v30.595c0,6.808,0,13.175,0.354,16.357c0.265,2.124,0.706,3.891,3.095,4.156
	c1.061,0.178,2.828,0.354,3.537,0.354c0.352,0,0.53,0.176,0.53,0.441c0,0.443-0.354,0.709-1.239,0.709
	c-4.597,0-9.549-0.265-9.99-0.265c-0.089,0-5.306,0.265-7.782,0.265c-0.796,0-1.239-0.178-1.239-0.709
	c0-0.265,0.178-0.441,0.619-0.441c0.619,0,1.591-0.176,2.3-0.354c1.591-0.265,2.032-2.032,2.298-4.156
	C372.088,575.317,372.088,568.95,372.088,562.318L372.088,562.318z M418.731,562.318v-13.262c0-11.584,0-13.705-0.178-16.094
	c-0.176-2.476-0.796-3.713-3.36-4.243c-0.53-0.089-1.413-0.178-2.122-0.178c-0.619,0-1.15-0.265-1.15-0.53
	c0-0.53,0.443-0.706,1.328-0.706c1.767,0,4.154,0.176,9.106,0.265c0.443,0,16.181,0,17.95-0.089
	c1.769-0.089,2.741-0.176,3.448-0.441c0.53-0.178,0.619-0.265,0.974-0.265c0.176,0,0.354,0.176,0.354,0.617
	c0,0.532-0.53,1.769-0.709,3.98c-0.089,1.504-0.176,2.917-0.265,4.597c0,0.796-0.176,1.326-0.619,1.326
	c-0.441,0-0.617-0.352-0.617-0.972c-0.089-1.326-0.354-2.211-0.619-2.83c-0.53-1.767-1.326-2.387-5.747-2.652
	c-1.15-0.089-9.903-0.176-10.079-0.176c-0.267,0-0.443,0.176-0.443,0.707v20.072c0,0.53,0.089,0.885,0.53,0.885
	c1.061,0,10.081-0.089,11.938-0.265c2.032-0.089,3.36-0.354,4.067-1.328c0.354-0.53,0.619-0.706,0.972-0.706
	c0.178,0,0.354,0.089,0.354,0.53c0,0.443-0.354,2.122-0.619,4.686c-0.265,2.476-0.265,4.245-0.352,5.393
	c-0.089,0.709-0.265,0.974-0.619,0.974c-0.441,0-0.53-0.53-0.53-1.15c0-0.53-0.089-1.415-0.265-2.122
	c-0.354-1.15-0.885-2.389-4.245-2.654c-2.032-0.176-9.195-0.352-10.61-0.352c-0.53,0-0.619,0.265-0.619,0.617v6.456
	c0,2.741-0.089,10.523,0,12.025c0.176,3.271,0.619,4.952,2.476,5.747c1.326,0.619,3.45,0.796,6.456,0.796
	c1.68,0,4.508,0.089,6.719-0.53c2.652-0.796,3.271-2.563,3.98-5.834c0.176-0.885,0.441-1.239,0.796-1.239
	c0.53,0,0.53,0.796,0.53,1.326c0,0.619-0.709,6.191-0.974,7.693c-0.352,1.769-0.972,1.945-3.889,1.945
	c-5.836,0-8.312-0.176-11.407-0.176c-3.095-0.089-7.162-0.265-10.434-0.265c-2.035,0-3.713,0.265-5.836,0.265
	c-0.796,0-1.237-0.178-1.237-0.619c0-0.354,0.354-0.619,0.796-0.619c0.53,0,1.15-0.087,1.767-0.265
	c1.593-0.352,2.654-1.502,2.83-6.984C418.642,572.665,418.731,569.039,418.731,562.318L418.731,562.318z M461.394,573.106
	c0-42.176,0.087-28.56,0-43.239c0-2.741,0.265-3.624,0.972-3.624c0.62,0,2.122,1.767,2.741,2.387
	c0.796,0.885,13.088,13.44,25.465,26.084c6.897,6.721,15.74,15.827,18.039,17.95l-0.974-36.783
	c-0.087-4.776-0.617-6.367-3.006-6.986c-1.502-0.265-2.828-0.354-3.448-0.354c-0.885,0-1.061-0.352-1.061-0.706
	c0-0.443,0.707-0.53,1.591-0.53c3.802,0,7.517,0.265,8.312,0.265c0.883,0,3.624-0.265,7.073-0.265c0.972,0,1.237,0.087,1.237,0.53
	c0,0.354-0.265,0.62-0.796,0.706c-0.53,0.089-1.237,0.089-2.211,0.265c-2.032,0.443-2.652,1.328-2.652,6.632l-0.176,44.389
	c0,4.419-0.178,4.863-0.796,4.863c-0.62,0-1.504-0.62-5.836-4.686c-0.354-0.176-12.644-12.379-20.337-19.896
	c-9.197-9.549-18.039-18.744-20.248-21.043l1.148,34.572c0.178,6.102,0.709,8.401,2.919,8.932c1.415,0.352,2.917,0.352,3.626,0.352
	c0.706,0,1.061,0.265,1.061,0.62c0,0.441-0.443,0.619-1.415,0.619c-4.776,0-7.958-0.265-8.577-0.265
	c-0.619,0-3.891,0.265-7.693,0.265c-0.796,0-1.326-0.089-1.326-0.619c0-0.354,0.354-0.62,1.237-0.62c0.62,0,1.593,0,2.741-0.352
	C460.95,581.949,461.394,579.562,461.394,573.106L461.394,573.106z M311.475,631.49v16.887c0,12.733,0.089,17.685-2.387,23.343
	c-1.591,3.802-5.13,7.34-12.025,11.938c-0.974,0.53-2.3,1.502-3.095,1.856c-0.089,0.089-0.265,0.089-0.53,0.089
	c-0.178,0-0.619-0.089-0.619-0.443c0-0.53,0.53-0.707,1.15-1.148c0.885-0.443,1.945-1.328,2.476-1.858
	c5.304-5.039,7.869-8.84,7.869-29.09V631.49c0-11.673,0-13.705-0.176-16.094c-0.178-2.387-0.974-3.624-3.45-4.243
	c-0.53-0.089-1.945-0.176-2.652-0.176c-0.265,0-0.619-0.267-0.619-0.532c0-0.53,0.443-0.706,1.326-0.706
	c3.715,0,8.843,0.265,9.108,0.265c0.354,0,5.571-0.265,8.047-0.265c0.885,0,1.237,0.176,1.237,0.706c0,0.265-0.352,0.532-0.53,0.532
	c-0.53,0-1.061,0.087-2.032,0.176c-2.035,0.441-2.741,1.767-2.919,4.332C311.475,617.872,311.475,619.817,311.475,631.49
	L311.475,631.49z M348.882,667.564c-21.663,0-30.505-16.092-30.505-29.532c0-11.76,9.108-29.356,30.949-29.356
	c17.507,0,30.858,10.434,30.858,28.206C380.183,653.772,367.717,667.564,348.882,667.564z M351.092,664.558
	c5.925,0,20.78-3.006,20.78-25.465c0-17.772-10.966-27.675-23.078-27.675c-12.292,0-22.195,7.604-22.195,24.315
	C326.599,653.064,336.237,664.558,351.092,664.558L351.092,664.558z M395.044,631.49v10.523c0,10.786,2.032,15.383,5.393,18.392
	c3.802,3.358,8.047,4.067,11.671,4.067c4.599,0,8.755-1.239,12.114-5.13c3.537-4.067,4.334-10.786,4.334-18.479v-9.373
	c0-11.584,0-13.618-0.178-16.005c-0.176-2.565-0.441-3.891-3.271-4.332c-0.619-0.089-1.68-0.176-2.476-0.176
	c-0.53,0-0.885-0.267-0.885-0.532c0-0.53,0.443-0.706,1.239-0.706c3.802,0,8.223,0.265,8.577,0.265c0.441,0,4.243-0.265,6.719-0.265
	c0.885,0,1.239,0.176,1.239,0.62c0,0.352-0.354,0.619-0.885,0.619c-0.53,0-0.709,0-1.591,0.087c-2.476,0.265-2.83,1.856-3.006,4.421
	c-0.089,2.387-0.089,4.421-0.089,16.005v7.869c0,7.958-0.885,17.507-7.162,22.902c-5.747,4.863-11.405,5.304-16.181,5.304
	c-2.476,0-10.788,0-16.535-5.304c-3.802-3.537-6.543-8.843-6.543-19.807V631.49c0-11.673,0-13.705-0.265-16.094
	c-0.089-2.387-0.53-3.889-3.271-4.243c-0.53-0.089-1.591-0.176-2.3-0.176c-0.619,0-0.972-0.267-0.972-0.532
	c0-0.53,0.352-0.706,1.326-0.706c3.802,0,8.577,0.265,9.195,0.265c0.709,0,5.925-0.265,8.312-0.265c0.974,0,1.239,0.176,1.239,0.62
	c0,0.441-0.619,0.619-1.061,0.619c-0.532,0-1.239,0.087-1.945,0.176c-2.124,0.265-2.476,1.767-2.654,4.243
	C395.044,617.785,395.044,619.817,395.044,631.49L395.044,631.49z M450.026,644.754V631.49c0-11.673,0-13.794-0.176-16.181
	c-0.178-2.389-0.796-3.715-3.537-4.245c-0.53-0.087-1.415-0.176-2.124-0.176c-0.617,0-0.972-0.178-0.972-0.53
	c0-0.354,0.265-0.62,1.061-0.62c3.802,0,9.197,0.265,9.373,0.265c0.796,0,6.808-0.265,9.284-0.265c4.952,0,10.347,0.441,14.501,3.36
	c1.68,1.237,5.306,4.773,5.306,10.788c0,4.862-2.387,11.051-9.373,16.711c6.456,7.958,11.76,14.501,16.27,19.187
	c4.245,4.332,6.897,5.039,9.373,5.393c0.62,0.089,2.476,0.178,2.741,0.178c0.707,0,0.972,0.265,0.972,0.617
	c0,0.443-0.352,0.62-1.591,0.62h-6.189c-4.156,0-6.102-0.265-8.047-1.061c-3.715-1.591-6.367-5.571-10.964-11.494
	c-3.45-4.245-6.986-9.019-8.488-10.877c-0.354-0.352-0.53-0.53-1.061-0.53l-9.108-0.087c-0.354,0-0.443,0.087-0.443,0.441v1.237
	c0,7.075,0,13.529,0.443,16.713c0.265,2.122,0.53,3.889,3.448,4.243c0.885,0.089,1.856,0.178,2.565,0.178
	c0.796,0,1.15,0.265,1.15,0.53c0,0.441-0.354,0.707-1.239,0.707c-4.597,0-9.549-0.265-9.903-0.265c-1.415,0-5.304,0.265-7.693,0.265
	c-0.883,0-1.237-0.176-1.237-0.707c0-0.265,0.53-0.53,1.061-0.53c0.619,0,1.237,0,1.945-0.178c1.502-0.265,2.032-1.237,2.298-3.361
	C450.115,658.635,450.026,651.383,450.026,644.754L450.026,644.754z M456.834,613.718v24.05c0,0.441,0.089,0.885,0.443,1.061
	c1.15,0.62,4.686,1.15,7.869,1.15c1.856,0,4.067-0.089,5.925-1.326c2.652-1.68,4.419-5.571,4.419-11.229
	c0-9.638-5.128-14.944-12.997-14.944c-2.211,0-4.067,0.176-5.13,0.441C457.099,613.009,456.834,613.274,456.834,613.718
	L456.834,613.718z M503.653,655.54c0-42.176,0.089-28.56,0-43.237c0-2.741,0.265-3.626,0.974-3.626c0.62,0,2.122,1.767,2.741,2.387
	c0.796,0.885,13.086,13.44,25.465,26.084c6.897,6.721,15.74,15.829,18.039,17.95l-0.974-36.783c-0.089-4.776-0.62-6.367-3.006-6.986
	c-1.504-0.265-2.83-0.352-3.448-0.352c-0.885,0-1.063-0.354-1.063-0.709c0-0.441,0.709-0.53,1.593-0.53
	c3.802,0,7.514,0.265,8.31,0.265c0.885,0,3.626-0.265,7.075-0.265c0.972,0,1.237,0.089,1.237,0.53c0,0.354-0.265,0.619-0.796,0.709
	c-0.53,0.087-1.237,0.087-2.211,0.265c-2.034,0.441-2.652,1.326-2.652,6.63l-0.178,44.389c0,4.421-0.176,4.863-0.796,4.863
	s-1.502-0.62-5.836-4.686c-0.352-0.176-12.642-12.379-20.335-19.894c-9.197-9.551-18.039-18.746-20.25-21.045l1.15,34.572
	c0.176,6.102,0.709,8.401,2.917,8.932c1.415,0.354,2.919,0.354,3.626,0.354c0.709,0,1.061,0.265,1.061,0.617
	c0,0.443-0.441,0.62-1.413,0.62c-4.776,0-7.958-0.265-8.577-0.265s-3.891,0.265-7.693,0.265c-0.796,0-1.326-0.089-1.326-0.62
	c0-0.352,0.352-0.617,1.237-0.617c0.619,0,1.591,0,2.741-0.354C503.211,664.382,503.652,661.995,503.653,655.54L503.653,655.54z
	 M594.879,645.019h-16.092c-0.441,0-0.709,0.265-0.885,0.707l-3.891,11.053c-0.883,2.476-1.502,4.862-1.502,6.278
	c0,1.591,0.972,2.3,2.917,2.3h0.62c0.796,0,1.061,0.265,1.061,0.617c0,0.443-0.706,0.62-1.326,0.62
	c-1.945,0-6.012-0.265-6.986-0.265c-0.883,0-4.773,0.265-8.488,0.265c-0.972,0-1.415-0.176-1.415-0.62
	c0-0.352,0.354-0.617,1.061-0.617c0.443,0,1.239,0,1.769-0.089c3.802-0.354,5.306-3.271,6.808-6.986l17.685-46.597
	c0.972-2.565,1.237-3.006,1.856-3.006c0.443,0,0.796,0.354,1.769,2.83c1.237,2.917,13.262,33.777,17.948,44.828
	c2.919,6.986,5.482,8.136,6.721,8.577c1.15,0.443,2.387,0.443,3.006,0.443c0.619,0,1.061,0.176,1.061,0.617
	c0,0.443-0.354,0.62-1.326,0.62c-0.885,0-7.517,0-13.44-0.176c-1.68-0.089-2.211-0.178-2.211-0.62c0-0.265,0.265-0.53,0.619-0.62
	c0.352-0.176,0.883-0.62,0.352-1.945l-6.984-17.772C595.409,645.195,595.233,645.019,594.879,645.019L594.879,645.019z
	 M579.672,641.924h14.146c0.354,0,0.354-0.265,0.265-0.53l-6.984-19.541c-0.443-1.239-0.53-1.239-0.974,0l-6.632,19.541
	C579.318,641.745,579.494,641.924,579.672,641.924z M630.056,631.49v13.44c0,10.168,0.354,15.296,1.856,16.711
	c1.415,1.239,3.184,1.769,9.286,1.769c3.889,0,7.425,0,9.371-2.476c0.885-1.328,1.504-3.095,1.68-4.421
	c0.089-0.709,0.265-1.061,0.709-1.061c0.352,0,0.53,0.265,0.53,1.148c0,0.885-0.53,5.925-1.061,7.958
	c-0.53,1.769-0.443,2.211-4.686,2.211c-6.012,0-12.644-0.441-21.487-0.441c-2.917,0-4.686,0.265-7.782,0.265
	c-0.885,0-1.415-0.176-1.415-0.707c0-0.265,0.265-0.53,0.974-0.53c0.706,0,1.415,0,2.121-0.178c1.504-0.265,2.035-2.032,2.3-4.156
	c0.53-3.358,0.352-9.46,0.352-16.268V631.49c0-11.673,0-13.618-0.176-16.005c-0.176-2.476-0.53-4.067-3.537-4.421
	c-0.53-0.087-1.504-0.087-2.211-0.087c-0.62,0-0.972-0.267-0.972-0.619c0-0.443,0.441-0.619,1.326-0.619
	c3.713,0,9.019,0.265,9.195,0.265c1.239,0,6.632-0.265,9.108-0.265c0.885,0,1.15,0.265,1.15,0.619c0,0.352-0.441,0.619-0.974,0.619
	c-0.617,0-1.502,0.087-2.387,0.176c-2.476,0.354-3.006,1.767-3.182,4.332C629.967,617.872,630.056,619.817,630.056,631.49
	L630.056,631.49z M310.238,750c-3.715,0-7.162-0.443-10.523-1.945c-1.15-0.53-1.15-0.885-1.15-3.006
	c0-4.067,0.265-7.075,0.354-8.312c0.087-0.796,0.265-1.239,0.706-1.239c0.443,0,0.619,0.267,0.619,0.885c0,0.53,0,1.591,0.265,2.654
	c1.15,5.747,6.367,7.958,11.494,7.958c7.338,0,10.877-5.041,10.877-9.462c0-5.041-2.3-8.134-8.755-13.351l-3.537-2.741
	c-8.488-6.81-10.255-11.494-10.255-16.711c0-8.136,6.454-13.618,16.357-13.618c3.095,0,5.217,0.265,7.162,0.709
	c1.68,0.352,2.387,0.441,3.006,0.441s0.796,0.176,0.796,0.53c0,0.354-0.354,3.448-0.354,8.577c0,1.326-0.176,1.856-0.617,1.856
	c-0.443,0-0.53-0.354-0.619-0.972c-0.089-0.798-0.265-2.654-1.061-4.156c-0.443-0.796-2.476-4.156-9.903-4.156
	c-5.306,0-9.284,3.182-9.284,8.488c0,4.156,2.122,6.719,9.46,12.29l2.035,1.591c9.195,7.075,11.584,11.762,11.584,18.039
	c0,3.182-1.328,8.84-6.721,12.555C318.727,749.115,314.481,750,310.238,750L310.238,750z M356.438,736.206v-6.456
	c0-4.243-0.619-5.834-1.945-8.134c-0.53-0.972-10.788-17.685-13.529-21.487c-2.387-3.361-3.271-4.421-4.508-5.393
	c-1.239-0.885-2.389-1.239-4.156-1.326c-0.53,0-0.974-0.265-0.974-0.709c0-0.265,0.354-0.53,1.061-0.53
	c1.415,0,8.136,0.265,8.312,0.265c0.53,0,3.45-0.265,6.721-0.265c0.883,0,1.15,0.265,1.15,0.53c0,0.354-0.267,0.53-0.974,0.709
	c-1.237,0.265-1.415,0.706-1.415,1.415c0,0.883,0.53,1.767,1.15,2.917c1.15,2.211,12.82,20.956,14.148,23.167
	c1.413-3.095,11.316-19.276,12.555-21.487c1.68-2.919,2.032-3.715,2.032-4.686c0-1.15-1.061-1.15-2.032-1.326
	c-0.709-0.089-0.974-0.354-0.974-0.709c0-0.265,0.178-0.53,1.061-0.53c2.124,0,3.98,0.265,5.395,0.265
	c1.15,0,6.278-0.265,7.78-0.265c0.798,0,1.063,0.265,1.063,0.53c0,0.443-0.443,0.709-1.063,0.709
	c-1.856,0.087-3.182,0.265-4.419,1.15c-1.328,0.883-1.858,1.678-3.271,3.624c-5.13,7.075-13.707,21.487-15.033,24.582
	c-1.061,2.741-0.885,4.686-0.885,6.984v6.456c0,0.62,0,3.891,0.178,7.073c0.176,2.122,0.354,3.626,3.095,4.156
	c1.148,0.265,2.652,0.354,3.271,0.354c0.706,0,0.972,0.265,0.972,0.53c0,0.441-0.265,0.706-1.061,0.706
	c-4.421,0-9.903-0.265-10.168-0.265c-0.176,0-5.482,0.265-7.958,0.265c-0.885,0-1.239-0.265-1.239-0.706
	c0-0.265,0.265-0.53,0.885-0.53c0.709,0,1.504-0.089,2.211-0.265c1.504-0.265,2.122-2.124,2.3-4.245
	C356.438,740.097,356.438,736.912,356.438,736.206L356.438,736.206z M402.018,750c-3.713,0-7.162-0.443-10.521-1.945
	c-1.15-0.53-1.15-0.885-1.15-3.006c0-4.067,0.265-7.075,0.354-8.312c0.087-0.796,0.265-1.239,0.706-1.239
	c0.441,0,0.619,0.267,0.619,0.885c0,0.53,0,1.591,0.265,2.654c1.15,5.747,6.367,7.958,11.494,7.958
	c7.338,0,10.875-5.041,10.875-9.462c0-5.041-2.298-8.134-8.753-13.351l-3.537-2.741c-8.488-6.81-10.258-11.494-10.258-16.711
	c0-8.136,6.456-13.618,16.359-13.618c3.095,0,5.217,0.265,7.162,0.709c1.68,0.352,2.387,0.441,3.006,0.441
	c0.62,0,0.796,0.176,0.796,0.53c0,0.354-0.354,3.448-0.354,8.577c0,1.326-0.176,1.856-0.617,1.856c-0.443,0-0.532-0.354-0.619-0.972
	c-0.089-0.798-0.265-2.654-1.061-4.156c-0.443-0.796-2.476-4.156-9.903-4.156c-5.306,0-9.286,3.182-9.286,8.488
	c0,4.156,2.124,6.719,9.462,12.29l2.035,1.591c9.195,7.075,11.581,11.762,11.581,18.039c0,3.182-1.326,8.84-6.719,12.555
	C410.506,749.115,406.263,750,402.018,750L402.018,750z M454.053,695.621v31.566c0,6.808,0.089,13.086,0.443,16.357
	c0.265,2.122,0.441,3.361,2.652,3.891c1.061,0.265,2.741,0.354,3.45,0.354c0.706,0,1.061,0.265,1.061,0.53
	c0,0.441-0.265,0.706-1.15,0.706c-4.51,0-9.727-0.265-10.079-0.265c-0.354,0-5.571,0.265-7.871,0.265
	c-0.972,0-1.326-0.176-1.326-0.62c0-0.265,0.265-0.617,0.974-0.617c0.706,0,1.237,0,1.943-0.089c1.68-0.265,1.945-1.326,2.3-4.332
	c0.354-3.184,0.354-9.549,0.354-16.181v-31.566c-2.919,0-7.604,0-11.142,0.087c-5.658,0.089-6.895,0.974-8.134,2.83
	c-0.796,1.239-1.15,2.3-1.326,2.741c-0.265,0.62-0.443,0.706-0.796,0.706c-0.354,0-0.443-0.352-0.443-0.796
	c-0.087-0.53,1.239-6.365,1.769-8.753c0.265-1.061,0.53-1.415,0.796-1.415c0.619,0,2.3,0.798,3.891,0.974
	c3.095,0.354,5.571,0.441,5.658,0.441h29.003c2.476,0,5.128-0.176,6.365-0.441c1.15-0.265,1.415-0.354,1.68-0.354
	c0.354,0,0.53,0.443,0.53,0.796c0,2.476-0.176,8.312-0.176,9.019c0,0.798-0.354,1.063-0.62,1.063c-0.441,0-0.617-0.354-0.617-1.063
	c0-0.265,0-0.352-0.089-1.237c-0.354-3.537-1.504-4.421-10.434-4.51C459.359,695.708,456.618,695.621,454.053,695.621
	L454.053,695.621z M487.611,727.187v-13.264c0-11.584,0-13.705-0.178-16.092c-0.176-2.476-0.796-3.715-3.358-4.245
	c-0.53-0.089-1.415-0.176-2.124-0.176c-0.617,0-1.148-0.265-1.148-0.53c0-0.53,0.441-0.709,1.326-0.709
	c1.767,0,4.156,0.178,9.108,0.265c0.441,0,16.181,0,17.948-0.087c1.769-0.089,2.741-0.178,3.45-0.443
	c0.53-0.176,0.617-0.265,0.972-0.265c0.176,0,0.354,0.178,0.354,0.62c0,0.53-0.53,1.767-0.709,3.978
	c-0.087,1.504-0.176,2.919-0.265,4.599c0,0.796-0.176,1.326-0.617,1.326c-0.443,0-0.62-0.354-0.62-0.974
	c-0.089-1.326-0.354-2.211-0.62-2.828c-0.53-1.769-1.326-2.389-5.747-2.654c-1.15-0.087-9.903-0.176-10.079-0.176
	c-0.265,0-0.443,0.176-0.443,0.706v20.072c0,0.53,0.089,0.885,0.53,0.885c1.063,0,10.081-0.089,11.938-0.265
	c2.035-0.089,3.361-0.354,4.067-1.326c0.354-0.53,0.62-0.709,0.974-0.709c0.176,0,0.352,0.089,0.352,0.532
	c0,0.441-0.352,2.122-0.617,4.684c-0.265,2.476-0.265,4.245-0.354,5.395c-0.089,0.706-0.265,0.972-0.619,0.972
	c-0.441,0-0.53-0.53-0.53-1.15c0-0.53-0.089-1.413-0.265-2.121c-0.354-1.15-0.885-2.387-4.245-2.652
	c-2.032-0.176-9.195-0.354-10.61-0.354c-0.53,0-0.62,0.265-0.62,0.62v6.454c0,2.741-0.087,10.523,0,12.027
	c0.178,3.271,0.62,4.952,2.476,5.747c1.326,0.617,3.45,0.796,6.456,0.796c1.68,0,4.508,0.087,6.719-0.53
	c2.654-0.796,3.271-2.565,3.98-5.836c0.176-0.885,0.441-1.239,0.796-1.239c0.53,0,0.53,0.798,0.53,1.328
	c0,0.617-0.706,6.189-0.972,7.693c-0.354,1.767-0.974,1.945-3.891,1.945c-5.836,0-8.312-0.178-11.407-0.178
	c-3.093-0.087-7.162-0.265-10.434-0.265c-2.032,0-3.713,0.265-5.834,0.265c-0.798,0-1.239-0.176-1.239-0.62
	c0-0.352,0.354-0.617,0.796-0.617c0.53,0,1.15-0.089,1.769-0.265c1.591-0.354,2.652-1.504,2.828-6.986
	C487.522,737.532,487.611,733.906,487.611,727.187L487.611,727.187z M585.448,693.321l5.571,45.98
	c0.265,2.122,0.796,7.073,4.243,7.869c1.504,0.354,3.271,0.53,4.51,0.619c0.354,0,1.15,0.087,1.15,0.53
	c0,0.441-0.354,0.706-1.328,0.706c-1.591,0-11.14-0.354-13.97-0.53c-1.945-0.176-2.652-0.354-2.652-0.796
	c0-0.265,0.354-0.62,0.796-0.796c0.443-0.176,0.709-1.239,0.53-2.476l-3.891-37.844l-18.744,38.02
	c-1.68,3.45-1.945,4.245-2.741,4.245c-0.53,0-0.974-0.796-2.654-3.802c-1.415-2.565-8.488-16.711-9.019-17.509
	c-0.53-1.061-9.195-18.213-9.903-20.07l-3.271,34.042c-0.089,1.237-0.089,2.032-0.089,3.358c0,0.974,0.443,2.3,2.211,2.654
	c0.974,0.176,1.593,0.176,2.476,0.265c0.709,0.087,0.885,0.352,0.885,0.53c0,0.62-0.53,0.706-1.502,0.706
	c-2.83,0-6.632-0.265-7.34-0.265c-0.883,0-4.597,0.265-6.808,0.265c-0.796,0-1.326-0.087-1.326-0.706c0-0.178,0.354-0.53,1.15-0.53
	c0.617,0,0.707,0,1.68-0.089c2.122-0.176,2.917-2.3,3.358-5.836l5.925-48.543c0.176-1.502,0.53-2.211,0.972-2.211
	c0.443,0,0.709,0.265,1.326,1.415l23.697,45.891l22.548-45.802c0.441-0.974,0.796-1.504,1.326-1.504
	S585.359,691.906,585.448,693.321L585.448,693.321z M617.588,750c-3.713,0-7.16-0.443-10.521-1.945
	c-1.15-0.53-1.15-0.885-1.15-3.006c0-4.067,0.265-7.075,0.354-8.312c0.087-0.796,0.265-1.239,0.706-1.239
	c0.441,0,0.62,0.267,0.62,0.885c0,0.53,0,1.591,0.265,2.654c1.15,5.747,6.367,7.958,11.494,7.958c7.338,0,10.875-5.041,10.875-9.462
	c0-5.041-2.298-8.134-8.753-13.351l-3.537-2.741c-8.488-6.81-10.255-11.494-10.255-16.711c0-8.136,6.454-13.618,16.357-13.618
	c3.095,0,5.217,0.265,7.162,0.709c1.68,0.352,2.387,0.441,3.006,0.441s0.796,0.176,0.796,0.53c0,0.354-0.354,3.448-0.354,8.577
	c0,1.326-0.176,1.856-0.617,1.856c-0.443,0-0.53-0.354-0.62-0.972c-0.089-0.798-0.265-2.654-1.061-4.156
	c-0.443-0.796-2.476-4.156-9.903-4.156c-5.306,0-9.284,3.182-9.284,8.488c0,4.156,2.122,6.719,9.46,12.29l2.034,1.591
	c9.195,7.075,11.584,11.762,11.584,18.039c0,3.182-1.328,8.84-6.721,12.555C626.078,749.115,621.833,750,617.588,750L617.588,750z
	 M400,466.575c-75.69,0-107.181-58.84-107.181-108.563c0-44.751,32.596-108.012,108.839-108.012
	c62.155,0,108.563,39.228,108.563,103.591C510.22,415.47,466.575,466.575,400,466.575L400,466.575z M407.458,456.077
	c24.862,0,76.243-14.364,76.243-94.75c0-66.298-40.33-101.933-83.977-101.933c-46.133,0-80.662,30.385-80.662,90.882
	C319.062,414.641,357.735,456.077,407.458,456.077L407.458,456.077z M571.907,329.595v62.668c0,42.302,0,58.494-8.287,77.032
	c-5.801,13.057-17.956,25.33-40.332,39.953c-3.59,2.349-8.012,5.221-10.773,6.528c-0.553,0.261-1.104,0.522-1.933,0.522
	c-0.829,0-1.935-0.522-1.935-1.568c0-1.566,1.382-2.349,3.868-3.916c3.315-1.827,7.183-4.962,9.669-7.311
	c17.954-17.235,26.519-31.073,26.519-98.444v-75.464c0-40.736,0-48.048-0.553-56.403c-0.553-8.88-2.762-13.057-11.878-14.884
	c-2.211-0.522-6.079-0.783-8.565-0.783c-1.933,0-3.037-0.785-3.037-1.829s1.104-1.827,4.144-1.827
	c12.431,0,30.11,0.783,31.492,0.783c1.38,0,18.783-0.783,27.07-0.783c3.039,0,4.421,0.522,4.421,2.088
	c0,1.044-1.382,1.568-3.039,1.568c-1.933,0-4.144,0.261-6.63,0.522c-7.459,0.783-9.116,6.004-9.669,15.145
	C571.906,281.548,571.906,288.859,571.907,329.595L571.907,329.595z M641.988,466.575c-12.982,0-25.69-1.935-37.015-7.459
	c-3.868-1.935-4.144-3.039-4.144-10.498c0-13.813,1.104-24.862,1.38-29.281c0.278-3.039,0.829-4.421,2.211-4.421
	c1.657,0,1.933,0.829,1.933,3.039c0,2.486,0,6.354,0.829,10.22c4.144,20.443,22.376,28.177,40.885,28.177
	c26.519,0,39.501-19.061,39.501-36.74c0-19.061-8.01-30.11-31.767-49.724l-12.431-10.22c-29.281-24.033-35.911-41.161-35.911-59.946
	c0-29.557,22.098-49.724,57.182-49.724c10.773,0,18.783,1.106,25.691,2.764c5.248,1.104,7.459,1.38,9.667,1.38
	c2.211,0,2.764,0.553,2.764,1.935c0,1.38-1.106,10.496-1.106,29.281c0,4.419-0.551,6.354-1.933,6.354
	c-1.657,0-1.933-1.382-2.211-3.593c-0.276-3.315-1.933-10.773-3.59-13.811c-1.657-3.039-9.116-14.642-34.531-14.642
	c-19.061,0-33.978,11.878-33.978,32.045c0,15.746,7.183,25.691,33.702,46.409l7.734,6.077
	c32.598,25.691,40.332,42.818,40.332,64.916c0,11.327-4.419,32.32-23.48,45.858C671.822,463.26,656.905,466.575,641.988,466.575
	L641.988,466.575z M292.818,498.618H500v4.144H292.818L292.818,498.618z M555.249,498.618h151.933v4.144H555.249V498.618z"/>
</svg>
